HIERARCHY
ROOT Pelvis
{
	OFFSET 0.000000 0.000000 0.000000
	CHANNELS 6 Xposition Yposition Zposition Xrotation Yrotation Zrotation
	JOINT LeftUpLeg_virtual
	{
		OFFSET 0.000000 0.000000 0.000000
		CHANNELS 3 Xrotation Yrotation Zrotation
		JOINT LeftUpLeg
		{
			OFFSET 18.735201 -5.666702 -4.541200
			CHANNELS 3 Xrotation Yrotation Zrotation
			JOINT LeftLeg
			{
				OFFSET -0.021200 -31.938179 0.493100
				CHANNELS 3 Xrotation Yrotation Zrotation
				JOINT LeftFoot
				{
					OFFSET 0.021200 -31.938179 -4.336299
					CHANNELS 3 Xrotation Yrotation Zrotation
					JOINT LeftToeBase
					{
						OFFSET 0.943001 -26.722000 15.023500
						CHANNELS 3 Xrotation Yrotation Zrotation
						End Site
						{
							OFFSET 0 0 0
						}
					}
				}
			}
		}
	}
	JOINT RightUpLeg_virtual
	{
		OFFSET 0.000000 0.000000 0.000000
		CHANNELS 3 Xrotation Yrotation Zrotation
		JOINT RightUpLeg
		{
			OFFSET -18.735201 -5.666702 -4.541200
			CHANNELS 3 Xrotation Yrotation Zrotation
			JOINT RightLeg
			{
				OFFSET 0.018946 -31.938133 0.493100
				CHANNELS 3 Xrotation Yrotation Zrotation
				JOINT RightFoot
				{
					OFFSET -0.018946 -31.938126 -4.336299
					CHANNELS 3 Xrotation Yrotation Zrotation
					JOINT RightToeBase
					{
						OFFSET -0.943001 -26.722004 15.023500
						CHANNELS 3 Xrotation Yrotation Zrotation
						End Site
						{
							OFFSET 0 0 0
						}
					}
				}
			}
		}
	}
	JOINT Hips_virtual
	{
		OFFSET 0.000000 0.000000 0.000000
		CHANNELS 3 Xrotation Yrotation Zrotation
		JOINT Hips
		{
			OFFSET -0.000000 -0.000000 -0.000000
			CHANNELS 3 Xrotation Yrotation Zrotation
			JOINT Spine
			{
				OFFSET 0.000000 10.199997 -0.299500
				CHANNELS 3 Xrotation Yrotation Zrotation
				JOINT Spine1
				{
					OFFSET 0.000000 11.900002 -1.516600
					CHANNELS 3 Xrotation Yrotation Zrotation
					JOINT Spine2
					{
						OFFSET 0.000000 13.600006 -2.842500
						CHANNELS 3 Xrotation Yrotation Zrotation
						JOINT Neck_virtual
						{
							OFFSET 0.000000 0.000000 0.000000
							CHANNELS 3 Xrotation Yrotation Zrotation
							JOINT Neck
							{
								OFFSET 0.000000 9.624100 -2.890100
								CHANNELS 3 Xrotation Yrotation Zrotation
								JOINT Head
								{
									OFFSET 0.000000 14.068802 -1.351900
									CHANNELS 3 Xrotation Yrotation Zrotation
									End Site
									{
										OFFSET 0 0 0
									}
								}
							}
						}
						JOINT LeftShoulder_virtual
						{
							OFFSET 0.000000 0.000000 0.000000
							CHANNELS 3 Xrotation Yrotation Zrotation
							JOINT LeftShoulder
							{
								OFFSET 15.263000 10.923401 -0.547700
								CHANNELS 3 Xrotation Yrotation Zrotation
								JOINT LeftArm
								{
									OFFSET 25.438599 -2.830597 -13.032500
									CHANNELS 3 Xrotation Yrotation Zrotation
									JOINT LeftForeArm
									{
										OFFSET 29.960503 0.000000 0.000000
										CHANNELS 3 Xrotation Yrotation Zrotation
										JOINT LeftHand
										{
											OFFSET 27.849251 0.000000 0.000000
											CHANNELS 3 Xrotation Yrotation Zrotation
											End Site
											{
												OFFSET 0 0 0
											}
										}
									}
								}
							}
						}
						JOINT RightShoulder_virtual
						{
							OFFSET 0.000000 0.000000 0.000000
							CHANNELS 3 Xrotation Yrotation Zrotation
							JOINT RightShoulder
							{
								OFFSET -15.263000 10.923401 -0.547700
								CHANNELS 3 Xrotation Yrotation Zrotation
								JOINT RightArm
								{
									OFFSET -25.438599 -2.830597 -13.032500
									CHANNELS 3 Xrotation Yrotation Zrotation
									JOINT RightForeArm
									{
										OFFSET -29.960503 0.000000 0.000000
										CHANNELS 3 Xrotation Yrotation Zrotation
										JOINT RightHand
										{
											OFFSET -27.849251 0.000000 0.000000
											CHANNELS 3 Xrotation Yrotation Zrotation
											End Site
											{
												OFFSET 0 0 0
											}
										}
									}
								}
							}
						}
					}
				}
			}
		}
	}
}
MOTION
Frames: 9
Frame Time: 0.03333333
-3.677869 78.163704 3.956812 0.000000 0.000000 0.000000 -8.938609 -19.519974 1.991155 -57.307165 1.676620 21.459158 50.093478 -10.931481 -1.658556 -2.832799 -10.602027 -16.013913 0.000000 0.000000 0.000000 9.965720 -34.449835 -2.191513 -21.010750 -14.188178 -23.325405 47.193701 7.092384 0.557538 -11.797257 1.911686 17.628363 0.000000 0.000000 0.000000 1.336146 -18.333476 0.772785 4.369169 -35.384273 6.525814 10.840002 5.739511 -4.784503 5.202880 4.237425 -3.173990 0.000000 0.000000 0.000000 -0.675400 5.654289 -2.744288 -2.430979 2.623005 -0.514737 0.000000 0.000000 0.000000 -3.669770 3.918241 -3.056926 -3.754818 -4.926633 -6.841024 -33.007709 13.232602 -48.657523 -11.824173 -28.384904 -8.847268 0.000000 0.000000 0.000000 -4.454666 6.246582 -2.198087 -4.776023 22.340519 -0.129272 -13.069344 -14.861023 48.233850 -7.256132 21.223443 12.422465 0.000000 0.000000 0.000000 
-3.701572 78.157928 3.931018 0.000000 0.000000 0.000000 -8.982892 -19.378077 1.956726 -57.364908 1.714985 21.448023 50.146098 -10.966231 -1.670302 -2.748927 -10.646396 -16.076947 0.000000 0.000000 0.000000 9.997703 -34.292372 -2.212236 -20.913937 -14.152781 -23.304723 47.356580 7.122797 0.553912 -11.702283 1.949644 17.649680 0.000000 0.000000 0.000000 1.346795 -18.293343 0.789945 4.271185 -35.100721 6.400474 10.798332 5.722488 -4.778539 5.227963 4.238889 -3.188282 0.000000 0.000000 0.000000 -0.649307 5.674915 -2.782131 -2.428464 2.624787 -0.531759 0.000000 0.000000 0.000000 -3.744849 3.933354 -3.034591 -3.768951 -5.132418 -6.490916 -33.104254 13.208100 -48.704836 -11.837018 -28.442981 -8.934423 0.000000 0.000000 0.000000 -4.509137 6.311012 -2.229851 -4.736172 22.350097 -0.151495 -11.787849 -14.657545 48.311881 -6.651874 20.701173 12.312949 0.000000 0.000000 0.000000 
-3.749599 78.149864 3.877554 0.000000 0.000000 0.000000 -9.036551 -19.132661 1.916820 -57.445367 1.777951 21.444834 50.238989 -11.026993 -1.689128 -2.604808 -10.723285 -16.185860 0.000000 0.000000 0.000000 10.055238 -33.992246 -2.246131 -20.739231 -14.084525 -23.260240 47.672552 7.167292 0.546453 -11.512622 2.012774 17.681237 0.000000 0.000000 0.000000 1.380160 -18.239008 0.834799 4.080332 -34.528232 6.172742 10.718869 5.695465 -4.766530 5.274720 4.238579 -3.216554 0.000000 0.000000 0.000000 -0.602072 5.712436 -2.852434 -2.423010 2.624793 -0.563409 0.000000 0.000000 0.000000 -3.882133 3.959891 -2.997840 -3.787632 -5.517996 -5.848408 -33.260586 13.167483 -48.787368 -11.862016 -28.567983 -9.099993 0.000000 0.000000 0.000000 -4.598522 6.428035 -2.287636 -4.653512 22.358870 -0.188275 -9.345773 -14.193833 48.424231 -5.491371 19.767396 12.105820 0.000000 0.000000 0.000000 
-3.820308 78.145760 3.793908 0.000000 0.000000 0.000000 -9.048181 -18.842462 1.913004 -57.495556 1.845093 21.476323 50.353971 -11.099330 -1.707462 -2.437460 -10.813089 -16.312618 0.000000 0.000000 0.000000 10.128017 -33.577517 -2.281855 -20.517120 -13.988662 -23.188914 48.121285 7.200295 0.534849 -11.232121 2.080672 17.705186 0.000000 0.000000 0.000000 1.456619 -18.205022 0.923993 3.810692 -33.668495 5.885577 10.614392 5.669364 -4.750319 5.338561 4.231949 -3.258405 0.000000 0.000000 0.000000 -0.541261 5.760585 -2.945936 -2.414519 2.617683 -0.605497 0.000000 0.000000 0.000000 -4.058421 3.992008 -2.959281 -3.795338 -6.036950 -5.012318 -33.419829 13.122004 -48.886543 -11.898490 -28.773859 -9.328186 0.000000 0.000000 0.000000 -4.690005 6.578399 -2.362670 -4.522356 22.353404 -0.228961 -5.949642 -13.381353 48.496023 -3.862933 18.615962 11.819548 0.000000 0.000000 0.000000 
-3.906420 78.153259 3.678508 0.000000 0.000000 0.000000 -8.975733 -18.560846 1.976435 -57.468932 1.899665 21.560605 50.475098 -11.167494 -1.717593 -2.283143 -10.894527 -16.427834 0.000000 0.000000 0.000000 10.204966 -33.085686 -2.309996 -20.279767 -13.872713 -23.092275 48.670910 7.196965 0.518888 -10.873104 2.132377 17.703077 0.000000 0.000000 0.000000 1.598298 -18.211060 1.073129 3.490025 -32.547552 5.594602 10.510812 5.654593 -4.735765 5.416521 4.215884 -3.313500 0.000000 0.000000 0.000000 -0.473998 5.812344 -3.051899 -2.404100 2.599063 -0.653091 0.000000 0.000000 0.000000 -4.244680 4.023980 -2.931439 -3.775990 -6.630767 -4.097091 -33.527654 13.077779 -48.986219 -11.946269 -29.073165 -9.599205 0.000000 0.000000 0.000000 -4.747436 6.741631 -2.446504 -4.335489 22.326275 -0.265446 -1.837378 -12.138127 48.442574 -1.880742 17.476827 11.471572 0.000000 0.000000 0.000000 
-3.994029 78.179924 3.531272 0.000000 0.000000 0.000000 -8.805947 -18.317256 2.110508 -57.344233 1.936353 21.694785 50.592526 -11.218649 -1.714447 -2.167435 -10.950231 -16.509757 0.000000 0.000000 0.000000 10.275656 -32.557340 -2.327856 -20.054566 -13.744829 -22.979401 49.277421 7.140286 0.498718 -10.460115 2.151118 17.660506 0.000000 0.000000 0.000000 1.820931 -18.246669 1.289237 3.161352 -31.226307 5.355466 10.444246 5.657630 -4.732817 5.508665 4.190529 -3.381311 0.000000 0.000000 0.000000 -0.405169 5.861513 -3.160528 -2.394313 2.567854 -0.701709 0.000000 0.000000 0.000000 -4.411349 4.052023 -2.922752 -3.717624 -7.237245 -3.208696 -33.549360 13.029432 -49.080749 -12.005073 -29.470514 -9.892859 0.000000 0.000000 0.000000 -4.741125 6.900620 -2.532736 -4.086733 22.279881 -0.294341 2.769497 -10.424597 48.190980 0.333232 16.564377 11.072289 0.000000 0.000000 0.000000 
-4.065342 78.231415 3.353067 0.000000 0.000000 0.000000 -8.558301 -18.115487 2.288221 -57.130393 1.961930 21.853327 50.701498 -11.246030 -1.697246 -2.102552 -10.970671 -16.549856 0.000000 0.000000 0.000000 10.329918 -32.027348 -2.340624 -19.862706 -13.611123 -22.865861 49.887179 7.021991 0.475087 -10.029052 2.124791 17.568281 0.000000 0.000000 0.000000 2.126351 -18.273883 1.565604 2.879519 -29.793801 5.209435 10.449921 5.680109 -4.752697 5.617045 4.159209 -3.460463 0.000000 0.000000 0.000000 -0.337405 5.903541 -3.264567 -2.388384 2.527098 -0.748182 0.000000 0.000000 0.000000 -4.533359 4.075031 -2.935824 -3.615008 -7.797900 -2.428457 -33.475331 12.958803 -49.177704 -12.073032 -29.958077 -10.191230 0.000000 0.000000 0.000000 -4.654321 7.043151 -2.616645 -3.774412 22.223257 -0.314878 7.687252 -8.264580 47.692465 2.666069 16.036586 10.622489 0.000000 0.000000 0.000000 
-4.104150 78.309937 3.145318 0.000000 0.000000 0.000000 -8.273488 -17.946942 2.464710 -56.857169 1.989005 21.997727 50.799539 -11.250880 -1.669447 -2.089884 -10.956147 -16.553921 0.000000 0.000000 0.000000 10.357528 -31.515599 -2.357729 -19.720344 -13.473369 -22.767867 50.444287 6.838313 0.449424 -9.620346 2.043425 17.420645 0.000000 0.000000 0.000000 2.498769 -18.245759 1.881207 2.701737 -28.344985 5.173126 10.548724 5.719935 -4.803482 5.743121 4.126487 -3.548047 0.000000 0.000000 0.000000 -0.271787 5.935422 -3.359808 -2.388668 2.482739 -0.790849 0.000000 0.000000 0.000000 -4.593862 4.094193 -2.967955 -3.470006 -8.265163 -1.805646 -33.317601 12.838613 -49.293441 -12.145489 -30.516227 -10.479524 0.000000 0.000000 0.000000 -4.485055 7.161077 -2.694015 -3.404096 22.164923 -0.325327 12.762575 -5.746289 46.922290 5.024113 15.975109 10.114088 0.000000 0.000000 0.000000 
-4.101337 78.413475 2.910829 0.000000 0.000000 0.000000 -7.993560 -17.807036 2.597802 -56.557928 2.027421 22.092319 50.886344 -11.242436 -1.637231 -2.122819 -10.916606 -16.539245 0.000000 0.000000 0.000000 10.349917 -31.021042 -2.386171 -19.638343 -13.328470 -22.694335 50.902251 6.584770 0.423557 -9.268064 1.896831 17.212671 0.000000 0.000000 0.000000 2.907696 -18.129626 2.205530 2.674281 -26.955871 5.237962 10.739996 5.772851 -4.886356 5.885654 4.095602 -3.639524 0.000000 0.000000 0.000000 -0.207851 5.954862 -3.444651 -2.395099 2.440880 -0.829061 0.000000 0.000000 0.000000 -4.586148 4.111677 -3.013111 -3.290500 -8.609236 -1.356798 -33.102952 12.639483 -49.444019 -12.215649 -31.119523 -10.745524 0.000000 0.000000 0.000000 -4.243855 7.248981 -2.760809 -2.989500 22.107181 -0.321491 17.851620 -3.005031 45.871745 7.334379 16.387734 9.532903 0.000000 0.000000 0.000000 
